<svg width="148" height="39" viewBox="0 0 148 39" fill="none" xmlns="http://www.w3.org/2000/svg">
<path d="M55.472 4.16C51.908 10.532 48.524 16.94 45.212 23.384C45.464 16.976 45.86 10.568 46.4 4.196H41.36C37.22 13.52 33.188 22.88 29.48 32.24H33.62C36.392 24.896 39.38 17.588 42.512 10.244C42.044 16.508 41.756 22.772 41.576 29.036H45.5C48.884 22.7 52.268 16.436 55.868 10.208C54.068 17.552 52.412 24.896 50.9 32.24H55.148C56.804 22.88 58.604 13.52 60.62 4.16H55.472ZM77.5286 19.388C75.7286 23.168 73.4606 25.904 72.0566 25.904C70.6166 25.904 71.7326 23.204 74.7926 14.744H70.9766C68.1686 22.844 66.8726 25.94 64.8566 25.94C62.9846 25.94 63.6326 22.52 66.9806 14.744H63.2006C58.7006 25.184 59.6006 29.36 63.4166 29.36C65.4326 29.36 67.0526 28.064 68.0966 26.444C68.1686 28.28 69.3566 29.36 70.9046 29.36C74.3606 29.36 77.7446 24.176 79.1126 21.116L77.5286 19.388ZM86.3603 19.388C84.5603 23.168 82.2923 25.904 80.8883 25.904C79.0883 25.904 79.1243 23.924 81.3923 17.588H84.4523L85.4603 14.744H82.4363C83.0123 13.268 83.6603 11.612 84.4163 9.74H80.6723L78.8003 14.744H77.2163L76.2443 17.588H77.7923C75.5963 24.068 74.7323 29.36 79.7363 29.36C83.1923 29.36 86.5763 24.176 87.9443 21.116L86.3603 19.388ZM102.162 19.388C100.362 23.168 98.0942 25.904 96.6902 25.904C95.2502 25.904 96.3662 23.204 99.4262 14.744H95.6102C92.8022 22.844 91.5062 25.94 89.4902 25.94C87.6182 25.94 88.2662 22.52 91.6142 14.744H87.8342C83.3342 25.184 84.2342 29.36 88.0502 29.36C90.0662 29.36 91.6862 28.064 92.7302 26.444C92.8022 28.28 93.9902 29.36 95.5382 29.36C98.9942 29.36 102.378 24.176 103.746 21.116L102.162 19.388ZM118.086 19.388C116.25 23.168 114.018 25.904 112.614 25.904C111.246 25.904 112.182 23.384 115.35 14.744H111.678L111.174 16.256C110.634 15.284 109.23 14.384 107.79 14.384C103.722 14.384 100.374 19.316 100.374 24.14C100.374 27.308 101.958 29.36 104.442 29.36C106.458 29.36 107.754 28.208 108.546 26.948C108.762 28.172 109.734 29.36 111.462 29.36C114.918 29.36 118.302 24.176 119.67 21.116L118.086 19.388ZM105.846 25.904C104.694 25.904 104.19 24.932 104.19 23.78C104.19 21.008 105.774 17.66 108.15 17.66C109.05 17.66 109.842 18.164 110.31 18.848C108.87 23.6 107.43 25.904 105.846 25.904ZM126.157 19.388C124.321 23.168 122.053 25.904 120.649 25.904C119.569 25.904 119.713 24.788 121.045 20.864C122.053 17.804 123.961 12.368 126.265 6.392H122.449C120.649 11.36 118.633 16.76 117.481 20.288C115.501 26.552 115.969 29.36 119.497 29.36C122.989 29.36 126.373 24.176 127.705 21.116L126.157 19.388ZM134.168 19.388C132.332 23.168 130.064 25.904 128.66 25.904C127.58 25.904 127.724 24.788 129.056 20.864C130.064 17.804 131.972 12.368 134.276 6.392H130.46C128.66 11.36 126.644 16.76 125.492 20.288C123.512 26.552 123.98 29.36 127.508 29.36C131 29.36 134.384 24.176 135.716 21.116L134.168 19.388ZM133.178 38.54C137.03 38.54 140.126 35.624 141.89 30.512C143.798 24.968 145.346 20.252 147.254 14.744H143.51C142.214 18.74 140.774 24.212 138.074 24.212C135.662 24.212 137.606 19.064 139.37 14.744H135.59C132.818 21.512 131.666 27.308 136.706 27.308C138.11 27.308 139.514 26.516 140.234 25.472L139.154 28.568C134.582 29.18 128.678 30.764 128.678 35.048C128.678 36.92 130.19 38.54 133.178 38.54ZM133.502 35.624C132.602 35.624 132.206 35.156 132.206 34.544C132.206 32.852 135.626 31.52 138.29 31.268C136.922 34.364 135.158 35.624 133.502 35.624Z" fill="black"/>
<rect y="7" width="15" height="15" fill="#5956E9"/>
<rect x="7" y="15" width="15" height="15" fill="#FFDC5F"/>
</svg>
